<svg width="24" height="24" viewBox="0 0 24 24" fill="none" xmlns="http://www.w3.org/2000/svg">
<g filter="url(#filter0_d_4_201)">
<path d="M11.5616 5.06667C10.9814 5.06667 10.4143 5.2387 9.9319 5.56102C9.44951 5.88334 9.07354 6.34146 8.85152 6.87746C8.62951 7.41346 8.57142 8.00325 8.6846 8.57226C8.79778 9.14127 9.07716 9.66394 9.48739 10.0742C9.89762 10.4844 10.4203 10.7638 10.9893 10.877C11.5583 10.9901 12.1481 10.9321 12.6841 10.71C13.2201 10.488 13.6782 10.1121 14.0005 9.62967C14.3229 9.14728 14.4949 8.58015 14.4949 8C14.494 7.2223 14.1847 6.47671 13.6348 5.92679C13.0849 5.37688 12.3393 5.06755 11.5616 5.06667ZM11.5616 9.86666C11.1924 9.86666 10.8315 9.75718 10.5245 9.55207C10.2175 9.34696 9.97828 9.05543 9.83699 8.71434C9.69571 8.37325 9.65874 7.99793 9.73077 7.63583C9.8028 7.27373 9.98058 6.94112 10.2416 6.68007C10.5027 6.41901 10.8353 6.24122 11.1974 6.1692C11.5595 6.09717 11.9348 6.13414 12.2759 6.27542C12.617 6.41671 12.9085 6.65596 13.1136 6.96293C13.3188 7.2699 13.4282 7.63081 13.4282 8C13.4277 8.4949 13.2308 8.96937 12.8809 9.31931C12.5309 9.66926 12.0565 9.86611 11.5616 9.86666Z" fill="white"/>
<path d="M18.8799 10.2106L17.8209 9.33887C18.0086 8.45616 18.0086 7.54384 17.8209 6.66113L18.8799 5.78937C19.002 5.68929 19.0845 5.54901 19.1127 5.39364C19.1408 5.23826 19.1127 5.07795 19.0334 4.9414L17.9463 3.05864C17.8678 2.92164 17.743 2.81712 17.5943 2.76379C17.4456 2.71047 17.2829 2.71183 17.1351 2.76764L15.8497 3.2492C15.1801 2.64423 14.3902 2.18766 13.5317 1.90947L13.3062 0.557102C13.2807 0.401247 13.2005 0.259579 13.08 0.157492C12.9595 0.0554051 12.8065 -0.000427226 12.6486 2.46178e-06H10.4745C10.3166 -0.000421757 10.1637 0.0554083 10.0432 0.157487C9.9227 0.259567 9.84249 0.401223 9.81694 0.557069L9.59154 1.90947C8.73308 2.18766 7.94313 2.64422 7.27354 3.2492L5.98804 2.76757C5.84031 2.7118 5.67754 2.71046 5.52891 2.76379C5.38028 2.81712 5.25549 2.92163 5.17691 3.0586L4.08988 4.9415C4.0106 5.07806 3.98252 5.23838 4.01068 5.39374C4.03884 5.54911 4.12139 5.68939 4.24355 5.78943L5.30244 6.66113C5.11471 7.54384 5.11471 8.45616 5.30244 9.33887L4.24345 10.2106C4.12131 10.3107 4.03878 10.451 4.01064 10.6064C3.9825 10.7617 4.01059 10.922 4.08988 11.0586L5.17694 12.9414C5.25553 13.0784 5.38034 13.1829 5.52899 13.2362C5.67765 13.2895 5.84043 13.2882 5.98818 13.2324L7.27358 12.7508C7.94317 13.3558 8.73311 13.8123 9.59158 14.0905L9.81698 15.4429C9.84251 15.5987 9.92272 15.7404 10.0432 15.8425C10.1637 15.9446 10.3166 16.0004 10.4745 16H12.6486C12.8065 16.0004 12.9595 15.9446 13.08 15.8425C13.2005 15.7404 13.2807 15.5988 13.3062 15.4429L13.5316 14.0905C14.3901 13.8123 15.18 13.3558 15.8496 12.7508L17.1351 13.2324C17.2828 13.2882 17.4456 13.2895 17.5942 13.2362C17.7429 13.1829 17.8677 13.0784 17.9462 12.9414L19.0332 11.0585C19.1125 10.922 19.1406 10.7617 19.1125 10.6064C19.0844 10.451 19.002 10.3107 18.8799 10.2106ZM17.192 12.1146L15.5884 11.5138L15.3455 11.7583C14.6774 12.4317 13.8417 12.9147 12.9247 13.1574L12.5914 13.2453L12.3099 14.9333H10.8135L10.5321 13.2453L10.1988 13.1574C9.28177 12.9147 8.44609 12.4317 7.77798 11.7583L7.53514 11.5138L5.93124 12.1146L5.18321 10.8187L6.50418 9.73127L6.41418 9.39883C6.16667 8.4827 6.16667 7.5173 6.41418 6.60117L6.50418 6.26877L5.18321 5.1813L5.93141 3.88537L7.53504 4.48617L7.77788 4.2417C8.44599 3.56829 9.28167 3.08531 10.1987 2.8426L10.532 2.75474L10.8134 1.06667H12.3099L12.5913 2.75474L12.9246 2.8426C13.8416 3.08531 14.6773 3.56829 15.3454 4.2417L15.5883 4.48617L17.1919 3.88537L17.9401 5.18127L16.6192 6.26877L16.7092 6.60117C16.9567 7.5173 16.9567 8.4827 16.7092 9.39883L16.6192 9.73127L17.9401 10.8187L17.192 12.1146Z" fill="white"/>
</g>
<defs>
<filter id="filter0_d_4_201" x="0" y="0" width="23.1233" height="24" filterUnits="userSpaceOnUse" color-interpolation-filters="sRGB">
<feFlood flood-opacity="0" result="BackgroundImageFix"/>
<feColorMatrix in="SourceAlpha" type="matrix" values="0 0 0 0 0 0 0 0 0 0 0 0 0 0 0 0 0 0 127 0" result="hardAlpha"/>
<feOffset dy="4"/>
<feGaussianBlur stdDeviation="2"/>
<feComposite in2="hardAlpha" operator="out"/>
<feColorMatrix type="matrix" values="0 0 0 0 0 0 0 0 0 0 0 0 0 0 0 0 0 0 0.25 0"/>
<feBlend mode="normal" in2="BackgroundImageFix" result="effect1_dropShadow_4_201"/>
<feBlend mode="normal" in="SourceGraphic" in2="effect1_dropShadow_4_201" result="shape"/>
</filter>
</defs>
</svg>
